<svg xmlns="http://www.w3.org/2000/svg" x="0px" y="0px" viewBox="0 0 864 864" enable-background="new 0 0 864 864"><style>.ls0{fill:#231f20}</style><g><path class="ls0" d="M190.1,602.6l40.4-74.6l31.1-57.6l45.3,24.4l59,31.8l1.5,0.8l49.4-21.4l3.1-3.4v-8.2v-48.6v-23.4V136.3v-54	c-18.4,0.6-36.4,2.6-54,6v55.1v234.9v86.9l-78.7-42.3l-47.5-25.6l-25.7,47.5L159,546.6c-15-35.8-22.9-74.6-22.9-114.6	c0-68.9,23.4-134.1,66.3-186.7l-41.9-34.1c-49,60.2-78.4,137.1-78.4,220.8c0,52.3,11.5,101.9,32.1,146.5c4.1,8.9,8.6,17.7,13.5,26.2	c4.1,7.2,8.4,14.3,13,21.2l48.2-20.9L190.1,602.6z"/><path class="ls0" d="M364.2,692.5c-19.7,8-32.1,18.4-55.4,19.6c-12.2,0.6-19.8,0.5-24.3,0.2c-4.5-1.2-9.1-2.6-13.7-4.2	c17.7,2.8,67-9,65.6-68c-18.6,4.3-29.6,15.2-36.6,26.9c-6.3,10.6-15.3,43.5-46.9,34.1c-11.8-5.2-24-11.8-36.6-20.1	c10.3,2.2,29.8,3.2,48.8-13c22.9-19.6,23.5-46.1,23.5-46.1s-14.3,2.4-30.5,15.5s-13.7,21.3-30.5,32c-10.9,7-20.7,4-26,1.1	c-14.3-10.8-29-24-44-39.9c-4.9,2-10.9,4.9-10.9,4.9s16.3,23.4,50.6,47.5l0,0c16.8,15,10.2,39.7,16.2,57.6c6,18,20.8,24.6,20.8,24.6	s7.5-13.7,2-40c-2.2-10.3-7.5-19.2-13.1-26.1c8.6,4.7,18,9.3,28.2,13.5c7.2,2.9,14.2,5.4,21.1,7.5c10.3,10.3,16.4,26.8,20.3,38	c4.4,12.9,13.7,22.4,30.1,25.7c0.3-31.6-15-49.2-25.3-57.5c0.9,0.2,1.7,0.3,2.6,0.5c10.9,5.9,36.5,18.2,57.1,16.9	c28.7-1.8,52-15.9,62.7-45.4C403.7,687,374.8,688.2,364.2,692.5z"/><path class="ls0" d="M746.2,277.9c-8-16.4-17.3-32-27.7-46.8l-50.7,22c11.1,14.6,20.8,30.1,29,46.3c17.6,35.1,28.1,73.6,30.6,113.6	l-215.6,93.6l-13.7,5.9v-18.7V385.6v-58.9l-54,23.5v58.9v34.2V536v58.9v132.8v54c18.4-0.6,36.4-2.7,54-6v-55.1V571.4l56.6-24.6	l170.5-74c-8.3,60.4-34.9,116.5-77.2,161.5l39.4,36.9c55.2-58.9,90.2-136.8,94.2-222.9c0.2-5.4,0.4-10.9,0.4-16.3	c0-14.1-0.8-28-2.5-41.6C774.7,350.4,763.2,312.5,746.2,277.9z"/><path class="ls0" d="M498.7,164c19.3-7.8,31.5-18.1,54.3-19.2c11.9-0.6,19.4-0.5,23.8-0.2c4.4,1.2,8.9,2.5,13.4,4.1	c-17.3-2.7-65.7,8.8-64.4,66.7c18.2-4.2,29-14.9,35.8-26.4c6.2-10.4,15-42.7,46-33.4c11.6,5.1,23.6,11.6,35.9,19.7	c-10.1-2.2-29.2-3.2-47.8,12.8c-22.5,19.2-23,45.2-23,45.2s14-2.4,29.9-15.2c15.9-12.8,13.4-20.9,29.9-31.4	c10.7-6.8,20.3-3.9,25.5-1.1c14,10.6,28.4,23.5,43.1,39.2c4.8-1.9,10.7-4.8,10.7-4.8s-16-22.9-49.6-46.6c0,0,0,0,0,0	c-16.5-14.7-10-38.9-15.9-56.5C640.5,99.2,626,92.7,626,92.7s-7.4,13.5-2,39.2c2.1,10.1,7.3,18.8,12.9,25.6	c-8.5-4.6-17.6-9.1-27.6-13.2c-7-2.9-13.9-5.3-20.7-7.4c-10.1-10.1-16.1-26.2-19.9-37.2c-4.3-12.6-13.5-21.9-29.5-25.2	c-0.3,30.9,14.7,48.2,24.8,56.4c-0.9-0.2-1.7-0.3-2.6-0.5c-10.7-5.7-35.8-17.8-56-16.6c-28.1,1.7-51,15.5-61.4,44.5	C460,169.3,488.4,168.1,498.7,164z"/></g></svg>